<mxfile host="65bd71144e">
    <diagram id="qmqA9NytO8TgUR9N8uJe" name="Page-1">
        <mxGraphModel dx="917" dy="775" grid="1" gridSize="10" guides="1" tooltips="1" connect="1" arrows="1" fold="1" page="1" pageScale="1" pageWidth="827" pageHeight="1169" math="0" shadow="0">
            <root>
                <mxCell id="0"/>
                <mxCell id="1" parent="0"/>
                <mxCell id="2" value="client" style="shape=umlLifeline;perimeter=lifelinePerimeter;whiteSpace=wrap;html=1;container=1;dropTarget=0;collapsible=0;recursiveResize=0;outlineConnect=0;portConstraint=eastwest;newEdgeStyle={&quot;curved&quot;:0,&quot;rounded&quot;:0};fillColor=#dae8fc;strokeColor=#6c8ebf;" parent="1" vertex="1">
                    <mxGeometry x="110" y="120" width="100" height="690" as="geometry"/>
                </mxCell>
                <mxCell id="3" value="Keycloak" style="shape=umlLifeline;perimeter=lifelinePerimeter;whiteSpace=wrap;html=1;container=1;dropTarget=0;collapsible=0;recursiveResize=0;outlineConnect=0;portConstraint=eastwest;newEdgeStyle={&quot;curved&quot;:0,&quot;rounded&quot;:0};fillColor=#d5e8d4;strokeColor=#82b366;" parent="1" vertex="1">
                    <mxGeometry x="650" y="120" width="100" height="690" as="geometry"/>
                </mxCell>
                <mxCell id="4" value="" style="html=1;points=[[0,0,0,0,5],[0,1,0,0,-5],[1,0,0,0,5],[1,1,0,0,-5]];perimeter=orthogonalPerimeter;outlineConnect=0;targetShapes=umlLifeline;portConstraint=eastwest;newEdgeStyle={&quot;curved&quot;:0,&quot;rounded&quot;:0};" parent="3" vertex="1">
                    <mxGeometry x="45" y="140" width="10" height="40" as="geometry"/>
                </mxCell>
                <mxCell id="5" value="&lt;font&gt;- perform different checks&lt;/font&gt;&lt;div&gt;&lt;font&gt;- prepare authentication form&lt;/font&gt;&lt;/div&gt;&lt;div&gt;- remember PKCE challenge and so on&lt;/div&gt;" style="html=1;align=left;spacingLeft=2;endArrow=block;rounded=0;edgeStyle=orthogonalEdgeStyle;curved=0;rounded=0;" parent="3" target="4" edge="1">
                    <mxGeometry x="0.0118" relative="1" as="geometry">
                        <mxPoint x="50" y="120" as="sourcePoint"/>
                        <Array as="points">
                            <mxPoint x="80" y="150"/>
                        </Array>
                        <mxPoint as="offset"/>
                    </mxGeometry>
                </mxCell>
                <mxCell id="6" value="" style="html=1;points=[[0,0,0,0,5],[0,1,0,0,-5],[1,0,0,0,5],[1,1,0,0,-5]];perimeter=orthogonalPerimeter;outlineConnect=0;targetShapes=umlLifeline;portConstraint=eastwest;newEdgeStyle={&quot;curved&quot;:0,&quot;rounded&quot;:0};" parent="3" vertex="1">
                    <mxGeometry x="45" y="310" width="10" height="40" as="geometry"/>
                </mxCell>
                <mxCell id="7" value="- check login and password&lt;div&gt;other options&lt;/div&gt;&lt;div&gt;- generate and remember&lt;/div&gt;&lt;div&gt;authorization code&lt;/div&gt;" style="html=1;align=left;spacingLeft=2;endArrow=block;rounded=0;edgeStyle=orthogonalEdgeStyle;curved=0;rounded=0;" parent="3" target="6" edge="1">
                    <mxGeometry relative="1" as="geometry">
                        <mxPoint x="50" y="290" as="sourcePoint"/>
                        <Array as="points">
                            <mxPoint x="80" y="320"/>
                        </Array>
                    </mxGeometry>
                </mxCell>
                <mxCell id="16" value="" style="html=1;points=[[0,0,0,0,5],[0,1,0,0,-5],[1,0,0,0,5],[1,1,0,0,-5]];perimeter=orthogonalPerimeter;outlineConnect=0;targetShapes=umlLifeline;portConstraint=eastwest;newEdgeStyle={&quot;curved&quot;:0,&quot;rounded&quot;:0};" vertex="1" parent="3">
                    <mxGeometry x="45" y="485" width="10" height="40" as="geometry"/>
                </mxCell>
                <mxCell id="17" value="check PKCE&amp;nbsp;&lt;div&gt;and authorization code&lt;/div&gt;" style="html=1;align=left;spacingLeft=2;endArrow=block;rounded=0;edgeStyle=orthogonalEdgeStyle;curved=0;rounded=0;" edge="1" target="16" parent="3">
                    <mxGeometry relative="1" as="geometry">
                        <mxPoint x="50" y="465" as="sourcePoint"/>
                        <Array as="points">
                            <mxPoint x="80" y="495"/>
                        </Array>
                    </mxGeometry>
                </mxCell>
                <mxCell id="8" value="Actor" style="shape=umlActor;verticalLabelPosition=bottom;verticalAlign=top;html=1;" parent="1" vertex="1">
                    <mxGeometry x="140" y="20" width="30" height="60" as="geometry"/>
                </mxCell>
                <mxCell id="9" value="&lt;font style=&quot;font-size: 12px;&quot;&gt;GET&amp;nbsp;http://sso.home.arpa/auth/realms/master/protocol/openid-connect/auth&lt;/font&gt;" style="endArrow=classic;html=1;rounded=0;" parent="1" target="3" edge="1">
                    <mxGeometry width="50" height="50" relative="1" as="geometry">
                        <mxPoint x="159.5" y="220" as="sourcePoint"/>
                        <mxPoint x="569.5" y="220" as="targetPoint"/>
                    </mxGeometry>
                </mxCell>
                <mxCell id="10" value="&lt;font style=&quot;font-size: 12px;&quot;&gt;return back authentication form&amp;nbsp;&lt;/font&gt;" style="endArrow=classic;html=1;rounded=0;dashed=1;" parent="1" source="3" edge="1">
                    <mxGeometry width="50" height="50" relative="1" as="geometry">
                        <mxPoint x="649.5" y="330" as="sourcePoint"/>
                        <mxPoint x="159.5" y="330" as="targetPoint"/>
                        <mxPoint as="offset"/>
                    </mxGeometry>
                </mxCell>
                <mxCell id="11" value="POST&amp;nbsp;&lt;br class=&quot;Apple-interchange-newline&quot;&gt;&lt;span style=&quot;color: rgb(31, 31, 31); font-family: system-ui, sans-serif; font-size: 12px; text-align: start; text-wrap: wrap;&quot;&gt;http://sso.home.arpa/auth/realms/master/login-actions/authenticate&lt;/span&gt;" style="endArrow=classic;html=1;rounded=0;" parent="1" edge="1">
                    <mxGeometry width="50" height="50" relative="1" as="geometry">
                        <mxPoint x="159.5" y="390" as="sourcePoint"/>
                        <mxPoint x="699.5" y="390" as="targetPoint"/>
                    </mxGeometry>
                </mxCell>
                <mxCell id="12" value="&lt;font style=&quot;font-size: 12px;&quot;&gt;302 Redirect with authorization code in Locatoin&lt;/font&gt;" style="endArrow=classic;html=1;rounded=0;dashed=1;" parent="1" edge="1">
                    <mxGeometry width="50" height="50" relative="1" as="geometry">
                        <mxPoint x="699.5" y="500" as="sourcePoint"/>
                        <mxPoint x="159.5" y="500" as="targetPoint"/>
                    </mxGeometry>
                </mxCell>
                <mxCell id="13" value="&lt;font style=&quot;font-size: 12px;&quot;&gt;POST&amp;nbsp;&lt;span style=&quot;background-color: light-dark(#ffffff, var(--ge-dark-color, #121212)); color: light-dark(rgb(0, 0, 0), rgb(255, 255, 255));&quot;&gt;http://sso.home.arpa/auth/realms/company-external/protocol/openid-connect/token&lt;/span&gt;&lt;/font&gt;" style="endArrow=classic;html=1;rounded=0;" parent="1" edge="1">
                    <mxGeometry width="50" height="50" relative="1" as="geometry">
                        <mxPoint x="159.5" y="550" as="sourcePoint"/>
                        <mxPoint x="699.5" y="550" as="targetPoint"/>
                    </mxGeometry>
                </mxCell>
                <mxCell id="14" value="return back tokes:&lt;div&gt;- access token&lt;/div&gt;&lt;div&gt;id token&lt;/div&gt;&lt;div&gt;refresh token&lt;/div&gt;" style="endArrow=classic;html=1;rounded=0;dashed=1;" parent="1" edge="1">
                    <mxGeometry width="50" height="50" relative="1" as="geometry">
                        <mxPoint x="699.5" y="670" as="sourcePoint"/>
                        <mxPoint x="159.5" y="670" as="targetPoint"/>
                    </mxGeometry>
                </mxCell>
            </root>
        </mxGraphModel>
    </diagram>
</mxfile>